REM DIRINDEX 1\2\4,1\2\5,1\3\6,1\3\7
REM DIRNAME folder01,folder02,folder03,folder04,folder05,folder06,folder07
TITLE ""
FILE "grammar_ch02.mp3" MP3
  TRACK 01 AUDIO
    TITLE "5:cjc072_095"
    INDEX 01 00:00:00
  TRACK 02 AUDIO
    TITLE "5:cjc072_096"
    INDEX 01 00:01:62
  TRACK 03 AUDIO
    TITLE "4:cjc072_097"
    INDEX 01 00:03:12
  TRACK 04 AUDIO
    TITLE "0:"
    INDEX 01 00:08:42
  TRACK 05 AUDIO
    TITLE "7:cjc072_098"
    INDEX 01 00:10:02
  TRACK 06 AUDIO
    TITLE "7:cjc072_099"
    INDEX 01 00:12:09
  TRACK 07 AUDIO
    TITLE "6:cjc072_100"
    INDEX 01 00:13:53
  TRACK 08 AUDIO
    TITLE "0:"
    INDEX 01 00:19:26
  TRACK 09 AUDIO
    TITLE "5:cjc072_101"
    INDEX 01 00:20:65
  TRACK 10 AUDIO
    TITLE "4:cjc072_102"
    INDEX 01 00:22:07
  TRACK 11 AUDIO
    TITLE "0:"
    INDEX 01 00:28:45
  TRACK 12 AUDIO
    TITLE "7:cjc072_103"
    INDEX 01 00:30:08
  TRACK 13 AUDIO
    TITLE "6:cjc072_104"
    INDEX 01 00:31:43
  TRACK 14 AUDIO
    TITLE "0:"
    INDEX 01 00:37:54
  TRACK 15 AUDIO
    TITLE "5:cjc072_105"
    INDEX 01 00:39:17
  TRACK 16 AUDIO
    TITLE "4:cjc072_106"
    INDEX 01 00:40:66
  TRACK 17 AUDIO
    TITLE "0:"
    INDEX 01 00:45:69
  TRACK 18 AUDIO
    TITLE "7:cjc072_107"
    INDEX 01 00:47:44
  TRACK 19 AUDIO
    TITLE "6:cjc072_108"
    INDEX 01 00:49:04
  TRACK 20 AUDIO
    TITLE "0:"
    INDEX 01 00:54:11
  TRACK 21 AUDIO
    TITLE "5:cjc072_109"
    INDEX 01 00:55:53
  TRACK 22 AUDIO
    TITLE "4:cjc072_110"
    INDEX 01 00:57:27
  TRACK 23 AUDIO
    TITLE "0:"
    INDEX 01 01:02:28
  TRACK 24 AUDIO
    TITLE "7:cjc072_111"
    INDEX 01 01:03:67
  TRACK 25 AUDIO
    TITLE "6:cjc072_112"
    INDEX 01 01:05:32
  TRACK 26 AUDIO
    TITLE "0:"
    INDEX 01 01:10:22
  TRACK 27 AUDIO
    TITLE "5:cjc072_113"
    INDEX 01 01:11:58
  TRACK 28 AUDIO
    TITLE "4:cjc072_114"
    INDEX 01 01:13:40
  TRACK 29 AUDIO
    TITLE "0:"
    INDEX 01 01:19:70
  TRACK 30 AUDIO
    TITLE "7:cjc072_115"
    INDEX 01 01:21:35
  TRACK 31 AUDIO
    TITLE "6:cjc072_116"
    INDEX 01 01:23:05
  TRACK 32 AUDIO
    TITLE "0:"
    INDEX 01 01:29:09
  TRACK 33 AUDIO
    TITLE "5:cjc072_117"
    INDEX 01 01:30:52
  TRACK 34 AUDIO
    TITLE "4:cjc072_118"
    INDEX 01 01:32:27
  TRACK 35 AUDIO
    TITLE "0:"
    INDEX 01 01:42:55
  TRACK 36 AUDIO
    TITLE "7:cjc072_119"
    INDEX 01 01:44:11
  TRACK 37 AUDIO
    TITLE "6:cjc072_120"
    INDEX 01 01:45:65
  TRACK 38 AUDIO
    TITLE "0:"
    INDEX 01 01:55:05
  TRACK 39 AUDIO
    TITLE "5:cjc072_121"
    INDEX 01 01:56:45
  TRACK 40 AUDIO
    TITLE "4:cjc072_122"
    INDEX 01 01:58:23
  TRACK 41 AUDIO
    TITLE "0:"
    INDEX 01 02:04:41
  TRACK 42 AUDIO
    TITLE "7:cjc072_123"
    INDEX 01 02:06:05
  TRACK 43 AUDIO
    TITLE "6:cjc072_124"
    INDEX 01 02:07:45
  TRACK 44 AUDIO
    TITLE "0:"
    INDEX 01 02:13:69
  TRACK 45 AUDIO
    TITLE "5:cjc072_125"
    INDEX 01 02:15:27
  TRACK 46 AUDIO
    TITLE "4:cjc072_126"
    INDEX 01 02:17:00
  TRACK 47 AUDIO
    TITLE "0:"
    INDEX 01 02:25:14
  TRACK 48 AUDIO
    TITLE "7:cjc072_127"
    INDEX 01 02:26:56
  TRACK 49 AUDIO
    TITLE "6:cjc072_128"
    INDEX 01 02:28:34
  TRACK 50 AUDIO
    TITLE "0:"
    INDEX 01 02:36:53
  TRACK 51 AUDIO
    TITLE "5:cjc072_129"
    INDEX 01 02:38:28
  TRACK 52 AUDIO
    TITLE "4:cjc072_130"
    INDEX 01 02:39:69
  TRACK 53 AUDIO
    TITLE "0:"
    INDEX 01 02:44:07
  TRACK 54 AUDIO
    TITLE "7:cjc072_131"
    INDEX 01 02:45:46
  TRACK 55 AUDIO
    TITLE "6:cjc072_132"
    INDEX 01 02:47:13
  TRACK 56 AUDIO
    TITLE "0:"
    INDEX 01 02:51:21
  TRACK 57 AUDIO
    TITLE "5:cjc072_133"
    INDEX 01 02:52:61
  TRACK 58 AUDIO
    TITLE "4:cjc072_134"
    INDEX 01 02:54:33
  TRACK 59 AUDIO
    TITLE "0:"
    INDEX 01 03:00:08
  TRACK 60 AUDIO
    TITLE "7:cjc072_135"
    INDEX 01 03:01:47
  TRACK 61 AUDIO
    TITLE "6:cjc072_136"
    INDEX 01 03:03:16
  TRACK 62 AUDIO
    TITLE "0:"
    INDEX 01 03:08:59
  TRACK 63 AUDIO
    TITLE "5:cjc072_137"
    INDEX 01 03:10:24
  TRACK 64 AUDIO
    TITLE "4:cjc072_138"
    INDEX 01 03:12:00
  TRACK 65 AUDIO
    TITLE "0:"
    INDEX 01 03:19:07
  TRACK 66 AUDIO
    TITLE "7:cjc072_139"
    INDEX 01 03:20:56
  TRACK 67 AUDIO
    TITLE "6:cjc072_140"
    INDEX 01 03:22:25
  TRACK 68 AUDIO
    TITLE "0:"
    INDEX 01 03:29:06
  TRACK 69 AUDIO
    TITLE "5:cjc072_141"
    INDEX 01 03:30:44
  TRACK 70 AUDIO
    TITLE "4:cjc072_142"
    INDEX 01 03:32:18
  TRACK 71 AUDIO
    TITLE "0:"
    INDEX 01 03:37:21
  TRACK 72 AUDIO
    TITLE "7:cjc072_143"
    INDEX 01 03:38:64
  TRACK 73 AUDIO
    TITLE "6:cjc072_144"
    INDEX 01 03:40:33
  TRACK 74 AUDIO
    TITLE "0:"
    INDEX 01 03:45:36
  TRACK 75 AUDIO
    TITLE "5:cjc072_145"
    INDEX 01 03:46:71
  TRACK 76 AUDIO
    TITLE "4:cjc072_146"
    INDEX 01 03:48:52
  TRACK 77 AUDIO
    TITLE "0:"
    INDEX 01 03:53:30
  TRACK 78 AUDIO
    TITLE "7:cjc072_147"
    INDEX 01 03:54:68
  TRACK 79 AUDIO
    TITLE "6:cjc072_148"
    INDEX 01 03:56:58
  TRACK 80 AUDIO
    TITLE "0:"
    INDEX 01 04:01:12
  TRACK 81 AUDIO
    TITLE "5:cjc072_149"
    INDEX 01 04:02:50
  TRACK 82 AUDIO
    TITLE "4:cjc072_150"
    INDEX 01 04:04:34
  TRACK 83 AUDIO
    TITLE "0:"
    INDEX 01 04:09:72
  TRACK 84 AUDIO
    TITLE "7:cjc072_151"
    INDEX 01 04:11:55
  TRACK 85 AUDIO
    TITLE "6:cjc072_152"
    INDEX 01 04:13:33
  TRACK 86 AUDIO
    TITLE "0:"
    INDEX 01 04:18:40
  TRACK 87 AUDIO
    TITLE "5:cjc072_153"
    INDEX 01 04:20:09
  TRACK 88 AUDIO
    TITLE "4:cjc072_154"
    INDEX 01 04:21:71
  TRACK 89 AUDIO
    TITLE "0:"
    INDEX 01 04:28:36
  TRACK 90 AUDIO
    TITLE "7:cjc072_155"
    INDEX 01 04:30:00
  TRACK 91 AUDIO
    TITLE "6:cjc072_156"
    INDEX 01 04:31:52
  TRACK 92 AUDIO
    TITLE "0:"
    INDEX 01 04:37:55
  TRACK 93 AUDIO
    TITLE "5:cjc072_157"
    INDEX 01 04:39:20
  TRACK 94 AUDIO
    TITLE "4:cjc072_158"
    INDEX 01 04:41:07
  TRACK 95 AUDIO
    TITLE "0:"
    INDEX 01 04:47:65
  TRACK 96 AUDIO
    TITLE "7:cjc072_159"
    INDEX 01 04:49:42
  TRACK 97 AUDIO
    TITLE "6:cjc072_160"
    INDEX 01 04:51:31
  TRACK 98 AUDIO
    TITLE "0:"
    INDEX 01 04:57:65
  TRACK 99 AUDIO
    TITLE "5:cjc072_161"
    INDEX 01 04:59:29
  TRACK 100 AUDIO
    TITLE "4:cjc072_162"
    INDEX 01 05:01:24
  TRACK 101 AUDIO
    TITLE "0:"
    INDEX 01 05:06:56
  TRACK 102 AUDIO
    TITLE "7:cjc072_163"
    INDEX 01 05:08:20
  TRACK 103 AUDIO
    TITLE "6:cjc072_164"
    INDEX 01 05:10:03
  TRACK 104 AUDIO
    TITLE "0:"
    INDEX 01 05:15:12
  TRACK 105 AUDIO
    TITLE "5:cjc072_165"
    INDEX 01 05:16:51
  TRACK 106 AUDIO
    TITLE "4:cjc072_166"
    INDEX 01 05:18:36
  TRACK 107 AUDIO
    TITLE "0:"
    INDEX 01 05:24:60
  TRACK 108 AUDIO
    TITLE "7:cjc072_167"
    INDEX 01 05:26:24
  TRACK 109 AUDIO
    TITLE "6:cjc072_168"
    INDEX 01 05:27:72
  TRACK 110 AUDIO
    TITLE "0:"
    INDEX 01 05:33:39
  TRACK 111 AUDIO
    TITLE "5:cjc072_169"
    INDEX 01 05:35:05
  TRACK 112 AUDIO
    TITLE "4:cjc072_170"
    INDEX 01 05:37:02
  TRACK 113 AUDIO
    TITLE "0:"
    INDEX 01 05:45:25
  TRACK 114 AUDIO
    TITLE "7:cjc072_171"
    INDEX 01 05:47:08
  TRACK 115 AUDIO
    TITLE "6:cjc072_172"
    INDEX 01 05:48:70
  TRACK 116 AUDIO
    TITLE "0:"
    INDEX 01 05:56:72
